<svg width="16" height="17" viewBox="0 0 16 17" fill="none" xmlns="http://www.w3.org/2000/svg">
<g id="map-pin-down">
<path id="Vector" d="M8.49054 14.6146C8.24882 14.7102 7.98442 14.733 7.72988 14.6803C7.47535 14.6276 7.24176 14.5017 7.05788 14.3179L4.22854 11.4893C3.58771 10.8484 3.12075 10.0548 2.87175 9.18343C2.62275 8.31202 2.59992 7.39152 2.8054 6.50884C3.01089 5.62615 3.43793 4.81039 4.0462 4.13855C4.65447 3.46671 5.42391 2.96096 6.28189 2.66903C7.13987 2.3771 8.0581 2.30863 8.94989 2.47007C9.84169 2.63151 10.6776 3.01754 11.3788 3.59173C12.08 4.16592 12.6233 4.90932 12.9575 5.75176C13.2916 6.59421 13.4055 7.50791 13.2885 8.40661M12.6665 11.0513V15.0513M12.6665 15.0513L14.6665 13.0513M12.6665 15.0513L10.6665 13.0513M5.99988 7.71794C5.99988 8.24838 6.21059 8.75709 6.58566 9.13216C6.96074 9.50723 7.46945 9.71794 7.99988 9.71794C8.53031 9.71794 9.03902 9.50723 9.41409 9.13216C9.78916 8.75709 9.99988 8.24838 9.99988 7.71794C9.99988 7.18751 9.78916 6.6788 9.41409 6.30373C9.03902 5.92866 8.53031 5.71794 7.99988 5.71794C7.46945 5.71794 6.96074 5.92866 6.58566 6.30373C6.21059 6.6788 5.99988 7.18751 5.99988 7.71794Z" stroke="#2A547B" stroke-width="1.2" stroke-linecap="round" stroke-linejoin="round"/>
</g>
</svg>
