<svg width="24" height="25" viewBox="0 0 24 25" fill="none" xmlns="http://www.w3.org/2000/svg">
<g id="script-plus">
<path id="Vector" d="M17 19.3848H21M14 20.3848H6C5.20435 20.3848 4.44129 20.0687 3.87868 19.5061C3.31607 18.9435 3 18.1804 3 17.3848C3 16.5891 3.31607 15.8261 3.87868 15.2634C4.44129 14.7008 5.20435 14.3848 6 14.3848H17C16.2044 14.3848 15.4413 14.7008 14.8787 15.2634C14.3161 15.8261 14 16.5891 14 17.3848M21 14.3848V6.38477C21 5.85433 20.7893 5.34562 20.4142 4.97055C20.0391 4.59548 19.5304 4.38477 19 4.38477H9C8.46957 4.38477 7.96086 4.59548 7.58579 4.97055C7.21071 5.34562 7 5.85433 7 6.38477V14.3848M19 17.3848V21.3848" stroke="#0C2F50" stroke-width="2" stroke-linecap="round" stroke-linejoin="round"/>
</g>
</svg>
