<svg width="25" height="25" viewBox="0 0 25 25" fill="none" xmlns="http://www.w3.org/2000/svg">
<g id="truck">
<path id="Vector" d="M5.3335 17.3848C5.3335 17.9152 5.54421 18.4239 5.91928 18.799C6.29436 19.1741 6.80306 19.3848 7.3335 19.3848C7.86393 19.3848 8.37264 19.1741 8.74771 18.799C9.12278 18.4239 9.3335 17.9152 9.3335 17.3848M5.3335 17.3848C5.3335 16.8543 5.54421 16.3456 5.91928 15.9706C6.29436 15.5955 6.80306 15.3848 7.3335 15.3848C7.86393 15.3848 8.37264 15.5955 8.74771 15.9706C9.12278 16.3456 9.3335 16.8543 9.3335 17.3848M5.3335 17.3848H3.3335V6.38477C3.3335 6.11955 3.43885 5.8652 3.62639 5.67766C3.81393 5.49012 4.06828 5.38477 4.3335 5.38477H13.3335V17.3848M9.3335 17.3848H15.3335M15.3335 17.3848C15.3335 17.9152 15.5442 18.4239 15.9193 18.799C16.2944 19.1741 16.8031 19.3848 17.3335 19.3848C17.8639 19.3848 18.3726 19.1741 18.7477 18.799C19.1228 18.4239 19.3335 17.9152 19.3335 17.3848M15.3335 17.3848C15.3335 16.8543 15.5442 16.3456 15.9193 15.9706C16.2944 15.5955 16.8031 15.3848 17.3335 15.3848C17.8639 15.3848 18.3726 15.5955 18.7477 15.9706C19.1228 16.3456 19.3335 16.8543 19.3335 17.3848M19.3335 17.3848H21.3335V11.3848M21.3335 11.3848H13.3335M21.3335 11.3848L18.3335 6.38477H13.3335" stroke="#0C2F50" stroke-width="2" stroke-linecap="round" stroke-linejoin="round"/>
</g>
</svg>
